# Blender v2.71 (sub 0) OBJ File: 'kafleLW.blend'
# www.blender.org
mtllib t10.mtl
o Plane.009_Plane.026
v -0.459312 0.031212 0.459312
v 0.459312 0.031212 0.459312
v 0.459312 0.031212 -0.459312
v -0.459312 0.031212 -0.459312
v -0.500912 -0.031212 -0.500912
v -0.500912 -0.031212 0.500912
v 0.500912 -0.031212 0.500912
v 0.500912 -0.031212 -0.500912
vt 0.978206 0.767421
vt 0.979217 0.985206
vt 0.766299 0.985186
vt 0.766122 0.767530
vt 0.758262 0.759687
vt 0.987586 0.759559
vt 0.987615 0.992049
vt 0.758162 0.991926
vn 0.000000 1.000000 0.000000
vn -0.832100 0.554600 0.000000
vn 0.000000 0.554600 0.832100
vn 0.832100 0.554600 0.000000
vn 0.000000 0.554600 -0.832100
usemtl None
s off
f 1/1/1 2/2/1 3/3/1 4/4/1
f 4/4/2 5/5/2 6/6/2 1/1/2
f 1/1/3 6/6/3 7/7/3 2/2/3
f 2/2/4 7/7/4 8/8/4 3/3/4
f 3/3/5 8/8/5 5/5/5 4/4/5
