# Blender v2.71 (sub 0) OBJ File: 'kafleLW.blend'
# www.blender.org
mtllib t13.mtl
o Plane.013_Plane.029
v -0.459312 0.031212 0.459313
v 0.459312 0.031212 0.459313
v 0.459312 0.031212 -0.459313
v -0.459312 0.031212 -0.459313
v -0.500912 -0.031212 0.500913
v 0.500912 -0.031212 0.500913
v 0.500912 -0.031212 -0.500913
v -0.500912 -0.031212 -0.500913
vt 0.979327 0.271990
vt 0.979135 0.485644
vt 0.768421 0.484570
vt 0.769811 0.273147
vt 0.987724 0.262406
vt 0.987681 0.495059
vt 0.758114 0.494900
vt 0.757979 0.262445
vn 0.000000 1.000000 0.000000
vn 0.000000 0.554600 0.832100
vn 0.832100 0.554600 0.000000
vn 0.000000 0.554600 -0.832100
vn -0.832100 0.554600 0.000000
usemtl None
s off
f 1/1/1 2/2/1 3/3/1 4/4/1
f 1/1/2 5/5/2 6/6/2 2/2/2
f 2/2/3 6/6/3 7/7/3 3/3/3
f 3/3/4 7/7/4 8/8/4 4/4/4
f 4/4/5 8/8/5 5/5/5 1/1/5
