# Blender v2.71 (sub 0) OBJ File: 'kafleLW.blend'
# www.blender.org
mtllib t14.mtl
o Plane.014_Plane.030
v -0.459312 0.031212 0.459313
v 0.459312 0.031212 0.459313
v 0.459312 0.031212 -0.459313
v -0.459312 0.031212 -0.459313
v -0.500912 -0.031212 -0.500913
v -0.500912 -0.031212 0.500913
v 0.500912 -0.031212 0.500913
v 0.500912 -0.031212 -0.500913
vt 0.474517 0.766240
vt 0.475562 0.985058
vt 0.260497 0.983841
vt 0.260653 0.766517
vt 0.253172 0.759573
vt 0.482611 0.759519
vt 0.482665 0.992074
vt 0.253344 0.991871
vn 0.000000 1.000000 0.000000
vn -0.832100 0.554600 0.000000
vn 0.000000 0.554600 0.832100
vn 0.832100 0.554600 0.000000
vn 0.000000 0.554600 -0.832100
usemtl None
s off
f 1/1/1 2/2/1 3/3/1 4/4/1
f 4/4/2 5/5/2 6/6/2 1/1/2
f 1/1/3 6/6/3 7/7/3 2/2/3
f 2/2/4 7/7/4 8/8/4 3/3/4
f 3/3/5 8/8/5 5/5/5 4/4/5
