# Blender v2.71 (sub 0) OBJ File: 'kafleLW.blend'
# www.blender.org
mtllib t16.mtl
o Plane.016_Plane.032
v -0.459312 0.031212 0.459313
v 0.459312 0.031212 0.459313
v 0.459312 0.031212 -0.459313
v -0.459312 0.031212 -0.459313
v 0.500913 -0.031212 -0.500913
v -0.500912 -0.031212 -0.500913
v -0.500912 -0.031212 0.500913
v 0.500913 -0.031212 0.500913
vt 0.727080 0.022806
vt 0.727285 0.233056
vt 0.520245 0.233224
vt 0.519489 0.022738
vt 0.507889 0.244472
vt 0.507939 0.011933
vt 0.737732 0.011861
vt 0.737638 0.244573
vn 0.000000 1.000000 0.000000
vn 0.000000 0.554600 -0.832100
vn -0.832100 0.554600 0.000000
vn 0.000000 0.554600 0.832100
vn 0.832100 0.554600 0.000000
usemtl None
s off
f 1/1/1 2/2/1 3/3/1 4/4/1
f 3/3/2 5/5/2 6/6/2 4/4/2
f 7/7/3 1/1/3 4/4/3 6/6/3
f 1/1/4 7/7/4 8/8/4 2/2/4
f 2/2/5 8/8/5 5/5/5 3/3/5
