# Blender v2.71 (sub 0) OBJ File: 'kafleLW.blend'
# www.blender.org
mtllib t3.mtl
o Plane.002_Plane.019
v -0.459312 0.031212 0.459312
v 0.459312 0.031212 0.459312
v 0.459312 0.031212 -0.459312
v -0.459312 0.031212 -0.459312
v -0.500912 -0.031212 -0.500912
v -0.500912 -0.031212 0.500912
v 0.500912 -0.031212 0.500912
v 0.500912 -0.031212 -0.500912
vt 0.732220 0.523428
vt 0.733865 0.736916
vt 0.519858 0.737152
vt 0.521430 0.524061
vt 0.512589 0.513036
vt 0.742060 0.512853
vt 0.742029 0.745450
vt 0.512439 0.745512
vn 0.000000 1.000000 0.000000
vn -0.832100 0.554600 0.000000
vn 0.000000 0.554600 0.832100
vn 0.832100 0.554600 0.000000
vn 0.000000 0.554600 -0.832100
usemtl None
s off
f 1/1/1 2/2/1 3/3/1 4/4/1
f 4/4/2 5/5/2 6/6/2 1/1/2
f 1/1/3 6/6/3 7/7/3 2/2/3
f 2/2/4 7/7/4 8/8/4 3/3/4
f 3/3/5 8/8/5 5/5/5 4/4/5
