# Blender v2.71 (sub 0) OBJ File: 'kafleLW.blend'
# www.blender.org
mtllib t6.mtl
o Plane.005_Plane.022
v -0.459312 0.031212 0.459312
v 0.459312 0.031212 0.459312
v 0.459312 0.031212 -0.459312
v -0.459312 0.031212 -0.459312
v -0.500912 -0.031212 -0.500912
v -0.500912 -0.031212 0.500912
v 0.500912 -0.031212 0.500912
v 0.500912 -0.031212 -0.500912
vt 0.484301 0.271033
vt 0.484080 0.485815
vt 0.272265 0.485832
vt 0.270384 0.270952
vt 0.263003 0.262533
vt 0.492561 0.262570
vt 0.492547 0.494948
vt 0.263080 0.494989
vn 0.000000 1.000000 0.000000
vn -0.832100 0.554600 0.000000
vn 0.000000 0.554600 0.832100
vn 0.832100 0.554600 0.000000
vn 0.000000 0.554600 -0.832100
usemtl None
s off
f 1/1/1 2/2/1 3/3/1 4/4/1
f 4/4/2 5/5/2 6/6/2 1/1/2
f 1/1/3 6/6/3 7/7/3 2/2/3
f 2/2/4 7/7/4 8/8/4 3/3/4
f 3/3/5 8/8/5 5/5/5 4/4/5
