# Blender v2.71 (sub 0) OBJ File: 'kafleLW.blend'
# www.blender.org
mtllib t8.mtl
o Plane.007_Plane.024
v -0.459312 0.031212 0.459312
v 0.459312 0.031212 0.459312
v 0.459312 0.031212 -0.459312
v -0.459312 0.031212 -0.459312
v -0.500912 -0.031212 -0.500912
v -0.500912 -0.031212 0.500912
v 0.500913 -0.031212 0.500912
v 0.500913 -0.031212 -0.500912
vt 0.230879 0.272579
vt 0.231765 0.485868
vt 0.020997 0.486042
vt 0.022193 0.273432
vt 0.011480 0.262574
vt 0.241015 0.262533
vt 0.241084 0.495021
vt 0.011387 0.495064
vn 0.000000 1.000000 0.000000
vn -0.832100 0.554600 0.000000
vn 0.000000 0.554600 0.832100
vn 0.832100 0.554600 0.000000
vn 0.000000 0.554600 -0.832100
usemtl None
s off
f 1/1/1 2/2/1 3/3/1 4/4/1
f 4/4/2 5/5/2 6/6/2 1/1/2
f 1/1/3 6/6/3 7/7/3 2/2/3
f 2/2/4 7/7/4 8/8/4 3/3/4
f 3/3/5 8/8/5 5/5/5 4/4/5
